<svg width="36" height="36" viewBox="0 0 36 36" fill="none" xmlns="http://www.w3.org/2000/svg">
    <path d="M0 9a4.5 4.5 0 0 1 4.5-4.5h27A4.5 4.5 0 0 1 36 9v18a4.5 4.5 0 0 1-4.5 4.5h-27A4.5 4.5 0 0 1 0 27V9zm4.5-2.25A2.25 2.25 0 0 0 2.25 9v.488L18 18.938l15.75-9.45V9a2.25 2.25 0 0 0-2.25-2.25h-27zm29.25 5.362-10.593 6.356 10.593 6.519V12.112zm-.076 15.47-12.69-7.81L18 21.562l-2.983-1.79-12.691 7.81A2.25 2.25 0 0 0 4.5 29.25h27a2.25 2.25 0 0 0 2.174-1.668zM2.25 24.987l10.593-6.52L2.25 12.113v12.875z" fill="#1D4978"/>
</svg>
