<svg width="1920" height="100" viewBox="0 0 1920 100" fill="none" xmlns="http://www.w3.org/2000/svg">
    <path fill="#F8F8F8" d="M0 0h1920v100H0z"/>
    <g filter="url(#tyhbkya81a)">
        <path d="M458.21 55c-.191 0-.286-.104-.286-.312V38.282c0-.208.095-.312.286-.312h5.252c2.687 0 4.689.624 6.006 1.872 1.317 1.248 1.976 3.12 1.976 5.616v1.56c0 2.652-.659 4.645-1.976 5.98-1.3 1.335-3.302 2.002-6.006 2.002h-5.252zm2.834-2.678h2.21c1.751 0 3.033-.433 3.848-1.3.815-.884 1.222-2.21 1.222-3.978v-1.612c0-1.612-.407-2.808-1.222-3.588-.815-.797-2.097-1.196-3.848-1.196h-2.21v11.674zm18.783 2.99c-1.872 0-3.276-.407-4.212-1.222-.936-.832-1.404-2.063-1.404-3.692v-3.224c0-1.733.459-3.042 1.378-3.926.936-.901 2.34-1.352 4.212-1.352 1.837 0 3.224.433 4.16 1.3.936.867 1.404 2.132 1.404 3.796v2.028c0 .208-.104.312-.312.312h-7.8v.78c0 .953.199 1.655.598 2.106.416.433 1.083.65 2.002.65.71 0 1.256-.113 1.638-.338.398-.225.598-.563.598-1.014 0-.208.104-.312.312-.312h2.392c.19 0 .294.095.312.286.052 1.248-.382 2.201-1.3 2.86-.902.641-2.228.962-3.978.962zm-2.574-8.06h5.096v-.13c0-.953-.208-1.655-.624-2.106-.416-.45-1.049-.676-1.898-.676-.884 0-1.534.234-1.95.702-.416.45-.624 1.153-.624 2.106v.104zm16 8.06c-1.005 0-1.811-.156-2.418-.468-.589-.312-1.023-.797-1.3-1.456-.26-.659-.39-1.5-.39-2.522v-6.084h-1.898c-.208 0-.312-.104-.312-.312v-1.95c0-.208.104-.312.312-.312h2.002l.338-3.12c.035-.19.147-.286.338-.286h1.976c.208 0 .312.104.312.312v3.094h3.562c.208 0 .312.104.312.312v1.95c0 .208-.104.312-.312.312h-3.562v5.928c0 .693.13 1.196.39 1.508.26.312.693.468 1.3.468.312 0 .624-.035.936-.104a4.66 4.66 0 0 0 .91-.286c.104-.035.191-.026.26.026.069.035.104.104.104.208v2.002c0 .173-.078.286-.234.338a5.456 5.456 0 0 1-1.196.312 7.3 7.3 0 0 1-1.43.13zM505.981 55c-.104 0-.182-.026-.234-.078a1.88 1.88 0 0 1-.104-.26 13.798 13.798 0 0 1-.13-.884 46.273 46.273 0 0 1-.13-1.196l-.182-1.066v-5.2c0-.728-.148-1.24-.442-1.534-.295-.312-.806-.468-1.534-.468-1.318 0-1.959.477-1.924 1.43 0 .208-.096.312-.286.312h-2.34c-.208 0-.321-.156-.338-.468-.104-1.161.286-2.063 1.17-2.704.901-.659 2.184-.988 3.848-.988 1.698 0 2.938.364 3.718 1.092.797.728 1.196 1.855 1.196 3.38v5.408c0 .555.008 1.075.026 1.56.034.485.078.927.13 1.326.034.225-.061.338-.286.338h-2.158zm-4.966.312c-1.04 0-1.838-.312-2.392-.936-.555-.624-.832-1.517-.832-2.678 0-.901.173-1.63.52-2.184.346-.572.91-1.014 1.69-1.326.797-.33 1.854-.546 3.172-.65l2.418-.208v1.872l-2.158.182c-1.006.087-1.699.277-2.08.572-.382.295-.572.771-.572 1.43 0 .503.104.884.312 1.144.208.243.528.364.962.364.52 0 1.048-.165 1.586-.494.537-.347 1.213-.953 2.028-1.82l.104 2.08a13.152 13.152 0 0 1-1.534 1.456 5.565 5.565 0 0 1-1.534.884 4.511 4.511 0 0 1-1.69.312zM511.854 55c-.19 0-.286-.104-.286-.312V42.52c0-.208.096-.312.286-.312h2.47c.208 0 .312.104.312.312v12.168c0 .208-.104.312-.312.312h-2.47zm1.248-14.638c-.589 0-1.04-.156-1.352-.468-.294-.312-.442-.71-.442-1.196v-.39c0-.503.148-.901.442-1.196.312-.312.763-.468 1.352-.468.59 0 1.032.156 1.326.468.295.295.442.693.442 1.196v.39c0 .485-.147.884-.442 1.196-.294.312-.736.468-1.326.468zM518.227 55c-.19 0-.286-.104-.286-.312V37.554c0-.208.096-.312.286-.312h2.47c.208 0 .312.104.312.312v17.134c0 .208-.104.312-.312.312h-2.47zm11.365.312c-1.872 0-3.276-.407-4.212-1.222-.936-.832-1.404-2.063-1.404-3.692v-3.224c0-1.733.46-3.042 1.378-3.926.936-.901 2.34-1.352 4.212-1.352 1.838 0 3.224.433 4.16 1.3.936.867 1.404 2.132 1.404 3.796v2.028c0 .208-.104.312-.312.312h-7.8v.78c0 .953.2 1.655.598 2.106.416.433 1.084.65 2.002.65.711 0 1.257-.113 1.638-.338.399-.225.598-.563.598-1.014 0-.208.104-.312.312-.312h2.392c.191 0 .295.095.312.286.052 1.248-.381 2.201-1.3 2.86-.901.641-2.227.962-3.978.962zm-2.574-8.06h5.096v-.13c0-.953-.208-1.655-.624-2.106-.416-.45-1.048-.676-1.898-.676-.884 0-1.534.234-1.95.702-.416.45-.624 1.153-.624 2.106v.104zm14.567 8.06c-1.213 0-2.141-.381-2.782-1.144-.641-.763-.962-1.924-.962-3.484v-3.536c0-1.75.407-3.06 1.222-3.926.815-.884 1.95-1.326 3.406-1.326.624 0 1.3.087 2.028.26.728.156 1.309.373 1.742.65l.104 2.444a5.992 5.992 0 0 0-1.56-.572 6.193 6.193 0 0 0-1.482-.208c-.797 0-1.395.251-1.794.754s-.598 1.24-.598 2.21v2.938c0 .763.147 1.335.442 1.716.295.381.745.572 1.352.572.399 0 .78-.078 1.144-.234a5.49 5.49 0 0 0 1.196-.702c.416-.33.884-.754 1.404-1.274l.104 2.262c-.52.503-1.04.953-1.56 1.352a6.463 6.463 0 0 1-1.586.936 5.144 5.144 0 0 1-1.82.312zm5.122-.312a.514.514 0 0 1-.234-.052.418.418 0 0 1-.104-.234 20.442 20.442 0 0 1-.156-.988 11 11 0 0 1-.052-.988l-.234-1.378V37.554c0-.208.104-.312.312-.312h2.444c.208 0 .312.104.312.312v14.352c0 .295.009.615.026.962l.052.962c.035.312.061.572.078.78.052.26-.043.39-.286.39h-2.158zm17.655.312c-2.202 0-3.892-.537-5.07-1.612-1.162-1.092-1.742-2.695-1.742-4.81v-4.784c0-2.132.589-3.735 1.768-4.81 1.178-1.092 2.86-1.638 5.044-1.638 1.49 0 2.773.243 3.848.728 1.074.485 1.872 1.179 2.392 2.08.52.901.693 1.967.52 3.198a.833.833 0 0 1-.104.26c-.035.07-.104.104-.208.104h-2.522c-.208 0-.304-.104-.286-.312.034-1.057-.252-1.872-.858-2.444-.59-.59-1.5-.884-2.73-.884-1.196 0-2.124.312-2.782.936-.642.624-.962 1.569-.962 2.834v4.654c0 1.265.32 2.21.962 2.834.658.624 1.586.936 2.782.936 1.265 0 2.201-.295 2.808-.884.606-.607.866-1.421.78-2.444-.018-.208.078-.312.286-.312h2.496c.19 0 .303.121.338.364.121 1.213-.087 2.27-.624 3.172-.52.901-1.309 1.603-2.366 2.106-1.04.485-2.297.728-3.77.728zM574.595 55c-.191 0-.286-.104-.286-.312V37.554c0-.208.095-.312.286-.312h2.47c.208 0 .312.104.312.312v17.134c0 .208-.104.312-.312.312h-2.47zm11.365.312c-1.872 0-3.276-.407-4.212-1.222-.936-.832-1.404-2.063-1.404-3.692v-3.224c0-1.733.459-3.042 1.378-3.926.936-.901 2.34-1.352 4.212-1.352 1.837 0 3.224.433 4.16 1.3.936.867 1.404 2.132 1.404 3.796v2.028c0 .208-.104.312-.312.312h-7.8v.78c0 .953.199 1.655.598 2.106.416.433 1.083.65 2.002.65.71 0 1.256-.113 1.638-.338.398-.225.598-.563.598-1.014 0-.208.104-.312.312-.312h2.392c.19 0 .294.095.312.286.052 1.248-.382 2.201-1.3 2.86-.902.641-2.228.962-3.978.962zm-2.574-8.06h5.096v-.13c0-.953-.208-1.655-.624-2.106-.416-.45-1.049-.676-1.898-.676-.884 0-1.534.234-1.95.702-.416.45-.624 1.153-.624 2.106v.104zM601.983 55c-.104 0-.182-.026-.234-.078a1.88 1.88 0 0 1-.104-.26 13.798 13.798 0 0 1-.13-.884 46.273 46.273 0 0 1-.13-1.196l-.182-1.066v-5.2c0-.728-.148-1.24-.442-1.534-.295-.312-.806-.468-1.534-.468-1.318 0-1.959.477-1.924 1.43 0 .208-.096.312-.286.312h-2.34c-.208 0-.321-.156-.338-.468-.104-1.161.286-2.063 1.17-2.704.901-.659 2.184-.988 3.848-.988 1.698 0 2.938.364 3.718 1.092.797.728 1.196 1.855 1.196 3.38v5.408c0 .555.008 1.075.026 1.56.034.485.078.927.13 1.326.034.225-.061.338-.286.338h-2.158zm-4.966.312c-1.04 0-1.838-.312-2.392-.936-.555-.624-.832-1.517-.832-2.678 0-.901.173-1.63.52-2.184.346-.572.91-1.014 1.69-1.326.797-.33 1.854-.546 3.172-.65l2.418-.208v1.872l-2.158.182c-1.006.087-1.699.277-2.08.572-.382.295-.572.771-.572 1.43 0 .503.104.884.312 1.144.208.243.528.364.962.364.52 0 1.048-.165 1.586-.494.537-.347 1.213-.953 2.028-1.82l.104 2.08a13.152 13.152 0 0 1-1.534 1.456 5.565 5.565 0 0 1-1.534.884 4.511 4.511 0 0 1-1.69.312zM616.02 55c-.208 0-.312-.104-.312-.312V46.68c0-.728-.147-1.265-.442-1.612-.294-.347-.745-.52-1.352-.52-.606 0-1.204.182-1.794.546-.572.347-1.23.893-1.976 1.638l-.104-2.262a12.153 12.153 0 0 1 1.508-1.378 6.723 6.723 0 0 1 1.612-.884 5.148 5.148 0 0 1 1.82-.312c1.248 0 2.193.355 2.834 1.066.642.693.962 1.768.962 3.224v8.502c0 .208-.104.312-.312.312h-2.444zm-8.164 0c-.19 0-.286-.104-.286-.312v-9.23c0-.485-.026-.997-.078-1.534a42.506 42.506 0 0 0-.104-1.352c-.034-.243.07-.364.312-.364h2.184c.104 0 .182.017.234.052.052.035.087.113.104.234.035.139.07.347.104.624.035.26.07.537.104.832.035.295.052.555.052.78l.156 1.04v8.918c0 .208-.104.312-.312.312h-2.47zm14.498 0c-.19 0-.286-.104-.286-.312V42.52c0-.208.096-.312.286-.312h2.47c.208 0 .312.104.312.312v12.168c0 .208-.104.312-.312.312h-2.47zm1.248-14.638c-.589 0-1.04-.156-1.352-.468-.294-.312-.442-.71-.442-1.196v-.39c0-.503.148-.901.442-1.196.312-.312.763-.468 1.352-.468.59 0 1.032.156 1.326.468.295.295.442.693.442 1.196v.39c0 .485-.147.884-.442 1.196-.294.312-.736.468-1.326.468zM636.891 55c-.208 0-.312-.104-.312-.312V46.68c0-.728-.147-1.265-.442-1.612-.294-.347-.745-.52-1.352-.52-.606 0-1.204.182-1.794.546-.572.347-1.23.893-1.976 1.638l-.104-2.262a12.153 12.153 0 0 1 1.508-1.378 6.723 6.723 0 0 1 1.612-.884 5.148 5.148 0 0 1 1.82-.312c1.248 0 2.193.355 2.834 1.066.642.693.962 1.768.962 3.224v8.502c0 .208-.104.312-.312.312h-2.444zm-8.164 0c-.19 0-.286-.104-.286-.312v-9.23c0-.485-.026-.997-.078-1.534a42.506 42.506 0 0 0-.104-1.352c-.034-.243.07-.364.312-.364h2.184c.104 0 .182.017.234.052.052.035.087.113.104.234.035.139.07.347.104.624.035.26.07.537.104.832.035.295.052.555.052.78l.156 1.04v8.918c0 .208-.104.312-.312.312h-2.47zm19.152 5.122c-2.097 0-3.614-.269-4.55-.806-.936-.537-1.404-1.343-1.404-2.418 0-.659.156-1.248.468-1.768.33-.52.85-.953 1.56-1.3l2.34.754c-.433.156-.754.381-.962.676a1.83 1.83 0 0 0-.286 1.014c0 .537.217.91.65 1.118.434.225 1.214.347 2.34.364 1.214 0 2.037-.113 2.47-.338.434-.225.65-.624.65-1.196 0-.399-.104-.693-.312-.884-.19-.19-.502-.295-.936-.312l-4.758-.286c-.641-.052-1.187-.277-1.638-.676-.433-.399-.65-.988-.65-1.768 0-.381.052-.728.156-1.04.122-.312.312-.598.572-.858.26-.277.598-.563 1.014-.858l1.872.858c-.346.121-.598.286-.754.494-.138.19-.208.399-.208.624 0 .26.078.442.234.546.174.104.442.165.806.182l4.186.26c1.196.087 2.063.442 2.6 1.066.555.607.832 1.49.832 2.652 0 1.37-.502 2.357-1.508 2.964-.988.624-2.582.936-4.784.936zm.26-9.256c-1.733 0-3.016-.364-3.848-1.092-.814-.745-1.222-1.872-1.222-3.38 0-1.525.416-2.652 1.248-3.38.832-.745 2.124-1.118 3.874-1.118 1.699 0 2.956.373 3.77 1.118.815.745 1.222 1.88 1.222 3.406 0 1.508-.407 2.626-1.222 3.354-.814.728-2.088 1.092-3.822 1.092zm0-2.392c.78 0 1.318-.156 1.612-.468.312-.33.468-.867.468-1.612 0-.763-.156-1.309-.468-1.638-.294-.33-.832-.494-1.612-.494-.78 0-1.326.165-1.638.494-.312.33-.468.875-.468 1.638 0 .745.156 1.283.468 1.612.312.312.858.468 1.638.468zm3.432-5.148-2.21-.858c.052-.71.113-1.335.182-1.872.087-.555.165-1.031.234-1.43.052-.208.156-.312.312-.312h2.08c.243 0 .33.113.26.338a17.6 17.6 0 0 0-.494 1.82 40.474 40.474 0 0 0-.364 2.314zm16.917 11.986c-2.201 0-3.891-.537-5.07-1.612-1.161-1.092-1.742-2.695-1.742-4.81v-4.784c0-2.132.59-3.735 1.768-4.81 1.179-1.092 2.86-1.638 5.044-1.638 1.491 0 2.774.243 3.848.728 1.075.485 1.872 1.179 2.392 2.08.52.901.694 1.967.52 3.198a.81.81 0 0 1-.104.26c-.034.07-.104.104-.208.104h-2.522c-.208 0-.303-.104-.286-.312.035-1.057-.251-1.872-.858-2.444-.589-.59-1.499-.884-2.73-.884-1.196 0-2.123.312-2.782.936-.641.624-.962 1.569-.962 2.834v4.654c0 1.265.321 2.21.962 2.834.659.624 1.586.936 2.782.936 1.266 0 2.202-.295 2.808-.884.607-.607.867-1.421.78-2.444-.017-.208.078-.312.286-.312h2.496c.191 0 .304.121.338.364.122 1.213-.086 2.27-.624 3.172-.52.901-1.308 1.603-2.366 2.106-1.04.485-2.296.728-3.77.728zm15.152 0c-1.837 0-3.258-.433-4.264-1.3-.988-.884-1.482-2.219-1.482-4.004V47.2c0-1.768.494-3.094 1.482-3.978.988-.884 2.41-1.326 4.264-1.326 1.838 0 3.25.442 4.238 1.326.988.884 1.482 2.21 1.482 3.978v2.808c0 1.785-.494 3.12-1.482 4.004-.97.867-2.383 1.3-4.238 1.3zm0-2.626c.936 0 1.612-.234 2.028-.702.416-.485.624-1.24.624-2.262v-2.236c0-1.023-.208-1.768-.624-2.236-.416-.485-1.092-.728-2.028-.728-.936 0-1.62.243-2.054.728-.416.468-.624 1.213-.624 2.236v2.236c0 1.023.208 1.777.624 2.262.434.468 1.118.702 2.054.702zM692.636 55c-.191 0-.286-.104-.286-.312v-9.23c0-.503-.018-1.005-.052-1.508-.018-.503-.061-.97-.13-1.404-.035-.225.069-.338.312-.338h2.184c.104 0 .173.017.208.052.052.017.086.078.104.182.034.243.078.503.13.78.052.277.086.572.104.884.676-.693 1.352-1.23 2.028-1.612.676-.399 1.447-.598 2.314-.598.918 0 1.629.19 2.132.572.52.381.892.945 1.118 1.69.71-.71 1.412-1.265 2.106-1.664.71-.399 1.508-.598 2.392-.598 1.178 0 2.062.355 2.652 1.066.606.693.91 1.76.91 3.198v8.528c0 .208-.096.312-.286.312h-2.47c-.208 0-.312-.104-.312-.312V46.68c0-.71-.13-1.24-.39-1.586-.243-.364-.65-.546-1.222-.546-.486 0-.971.147-1.456.442-.468.277-.997.693-1.586 1.248v8.45c0 .208-.104.312-.312.312h-2.444c-.208 0-.312-.104-.312-.312V46.68c0-.71-.13-1.24-.39-1.586-.26-.364-.668-.546-1.222-.546-.486 0-.971.147-1.456.442-.468.277-.997.693-1.586 1.248v8.45c0 .208-.104.312-.312.312h-2.47zm27.945.312a8.384 8.384 0 0 1-1.976-.26c-.693-.156-1.274-.373-1.742-.65l-.052-2.444c.451.26.936.46 1.456.598.52.121 1.006.182 1.456.182.832 0 1.439-.251 1.82-.754.382-.503.572-1.24.572-2.21v-2.756c0-.85-.147-1.473-.442-1.872-.294-.399-.754-.598-1.378-.598-.537 0-1.083.165-1.638.494-.554.33-1.213.84-1.976 1.534l-.13-2.288a12.04 12.04 0 0 1 1.508-1.248 6.197 6.197 0 0 1 1.56-.832 4.787 4.787 0 0 1 1.742-.312c1.266 0 2.219.381 2.86 1.144.642.745.962 1.898.962 3.458v3.562c0 1.768-.398 3.085-1.196 3.952-.78.867-1.915 1.3-3.406 1.3zm-6.11 4.498c-.19 0-.286-.104-.286-.312V45.302c0-.45-.017-.919-.052-1.404a25.018 25.018 0 0 0-.13-1.352c-.017-.225.087-.338.312-.338h2.184c.191 0 .304.095.338.286.035.139.07.32.104.546.035.208.061.425.078.65.018.225.026.407.026.546l.208 1.456v13.806c0 .208-.104.312-.312.312h-2.47zm21.27-4.81c-.104 0-.182-.026-.234-.078a1.88 1.88 0 0 1-.104-.26 13.798 13.798 0 0 1-.13-.884 46.273 46.273 0 0 1-.13-1.196l-.182-1.066v-5.2c0-.728-.148-1.24-.442-1.534-.295-.312-.806-.468-1.534-.468-1.318 0-1.959.477-1.924 1.43 0 .208-.096.312-.286.312h-2.34c-.208 0-.321-.156-.338-.468-.104-1.161.286-2.063 1.17-2.704.901-.659 2.184-.988 3.848-.988 1.698 0 2.938.364 3.718 1.092.797.728 1.196 1.855 1.196 3.38v5.408c0 .555.008 1.075.026 1.56.034.485.078.927.13 1.326.034.225-.061.338-.286.338h-2.158zm-4.966.312c-1.04 0-1.838-.312-2.392-.936-.555-.624-.832-1.517-.832-2.678 0-.901.173-1.63.52-2.184.346-.572.91-1.014 1.69-1.326.797-.33 1.854-.546 3.172-.65l2.418-.208v1.872l-2.158.182c-1.006.087-1.699.277-2.08.572-.382.295-.572.771-.572 1.43 0 .503.104.884.312 1.144.208.243.528.364.962.364.52 0 1.048-.165 1.586-.494.537-.347 1.213-.953 2.028-1.82l.104 2.08a13.152 13.152 0 0 1-1.534 1.456 5.565 5.565 0 0 1-1.534.884 4.511 4.511 0 0 1-1.69.312zM749.778 55c-.208 0-.312-.104-.312-.312V46.68c0-.728-.147-1.265-.442-1.612-.295-.347-.745-.52-1.352-.52-.607 0-1.205.182-1.794.546-.572.347-1.231.893-1.976 1.638l-.104-2.262a12.082 12.082 0 0 1 1.508-1.378 6.704 6.704 0 0 1 1.612-.884 5.144 5.144 0 0 1 1.82-.312c1.248 0 2.193.355 2.834 1.066.641.693.962 1.768.962 3.224v8.502c0 .208-.104.312-.312.312h-2.444zm-8.164 0c-.191 0-.286-.104-.286-.312v-9.23c0-.485-.026-.997-.078-1.534a45.694 45.694 0 0 0-.104-1.352c-.035-.243.069-.364.312-.364h2.184c.104 0 .182.017.234.052.052.035.087.113.104.234.035.139.069.347.104.624.035.26.069.537.104.832.035.295.052.555.052.78l.156 1.04v8.918c0 .208-.104.312-.312.312h-2.47zm16.139 4.81c-.243 0-.312-.121-.208-.364l1.742-4.55-4.758-12.324c-.087-.243-.009-.364.234-.364h2.678c.173 0 .286.087.338.26l1.872 5.33c.191.537.373 1.11.546 1.716.173.59.338 1.187.494 1.794h.052c.173-.607.347-1.205.52-1.794.173-.59.355-1.161.546-1.716l1.872-5.33c.052-.173.165-.26.338-.26h2.6c.104 0 .182.035.234.104.052.07.061.156.026.26l-6.37 17.004c-.069.156-.182.234-.338.234h-2.418zM774.831 55c-.191 0-.286-.104-.286-.312V38.282c0-.208.095-.312.286-.312h2.548c.191 0 .286.104.286.312v13.962h6.838c.208 0 .312.104.312.312v2.132c0 .208-.104.312-.312.312h-9.672zm12.67 0c-.191 0-.286-.104-.286-.312V38.282c0-.208.095-.312.286-.312h2.548c.191 0 .286.104.286.312v13.962h6.838c.208 0 .312.104.312.312v2.132c0 .208-.104.312-.312.312h-9.672zm18.452.312c-2.201 0-3.891-.537-5.07-1.612-1.161-1.092-1.742-2.695-1.742-4.81v-4.784c0-2.132.59-3.735 1.768-4.81 1.179-1.092 2.86-1.638 5.044-1.638 1.491 0 2.774.243 3.848.728 1.075.485 1.872 1.179 2.392 2.08.52.901.694 1.967.52 3.198a.81.81 0 0 1-.104.26c-.034.07-.104.104-.208.104h-2.522c-.208 0-.303-.104-.286-.312.035-1.057-.251-1.872-.858-2.444-.589-.59-1.499-.884-2.73-.884-1.196 0-2.123.312-2.782.936-.641.624-.962 1.569-.962 2.834v4.654c0 1.265.321 2.21.962 2.834.659.624 1.586.936 2.782.936 1.266 0 2.202-.295 2.808-.884.607-.607.867-1.421.78-2.444-.017-.208.078-.312.286-.312h2.496c.191 0 .304.121.338.364.122 1.213-.086 2.27-.624 3.172-.52.901-1.308 1.603-2.366 2.106-1.04.485-2.296.728-3.77.728z" fill="#1D4978"/>
    </g>
    <path d="M1420 50.11c0-10.003-8.06-18.111-18-18.111s-18 8.108-18 18.11c0 9.04 6.58 16.532 15.19 17.89V55.345h-4.57V50.11h4.57v-3.99c0-4.539 2.68-7.046 6.8-7.046 1.96 0 4.02.354 4.02.354v4.457h-2.26c-2.24 0-2.94 1.396-2.94 2.828v3.397h4.99l-.79 5.235h-4.2V68c8.61-1.359 15.19-8.851 15.19-17.89zM1448 32c-4.89 0-5.5.021-7.42.109-1.92.087-3.22.39-4.37.836a8.848 8.848 0 0 0-3.19 2.076c-1 1-1.61 2.004-2.08 3.188-.44 1.145-.75 2.453-.83 4.369-.09 1.92-.11 2.534-.11 7.422 0 4.889.02 5.5.11 7.42.09 1.917.39 3.225.84 4.37.46 1.183 1.07 2.187 2.07 3.188a8.848 8.848 0 0 0 3.19 2.077c1.14.445 2.45.749 4.37.837 1.92.087 2.53.108 7.42.108 4.89 0 5.5-.021 7.42-.108 1.92-.088 3.23-.391 4.37-.837a8.848 8.848 0 0 0 3.19-2.077c1-1 1.61-2.005 2.07-3.188.45-1.145.75-2.454.84-4.37.09-1.92.11-2.531.11-7.42 0-4.888-.02-5.502-.11-7.422-.09-1.916-.39-3.224-.84-4.369-.46-1.184-1.07-2.188-2.07-3.188a8.837 8.837 0 0 0-3.19-2.076c-1.15-.445-2.46-.748-4.37-.836-1.92-.088-2.53-.109-7.42-.109zm-1.61 3.244h1.61c4.81 0 5.38.017 7.28.103 1.75.08 2.7.374 3.34.62.84.326 1.44.716 2.07 1.346.63.63 1.02 1.23 1.34 2.07.25.634.54 1.587.62 3.342.09 1.897.11 2.467.11 7.271s-.02 5.374-.11 7.271c-.08 1.755-.37 2.708-.62 3.342-.32.84-.71 1.438-1.34 2.067-.63.63-1.23 1.02-2.07 1.347-.64.247-1.59.54-3.34.62-1.9.086-2.47.105-7.28.105-4.8 0-5.37-.019-7.27-.105-1.76-.081-2.71-.374-3.34-.62a5.574 5.574 0 0 1-2.07-1.347 5.623 5.623 0 0 1-1.35-2.069c-.25-.634-.54-1.586-.62-3.341-.09-1.898-.1-2.468-.1-7.274 0-4.807.01-5.374.1-7.272.08-1.755.37-2.707.62-3.342.32-.84.72-1.44 1.35-2.07.63-.63 1.23-1.02 2.07-1.347.63-.247 1.58-.54 3.34-.62 1.66-.075 2.3-.098 5.66-.102v.005zm11.22 2.989c-1.19 0-2.16.966-2.16 2.159 0 1.192.97 2.16 2.16 2.16 1.19 0 2.16-.968 2.16-2.16 0-1.193-.97-2.16-2.16-2.16zm-9.61 2.523c-5.1 0-9.24 4.14-9.24 9.244 0 5.105 4.14 9.242 9.24 9.242 5.11 0 9.24-4.137 9.24-9.242 0-5.105-4.13-9.244-9.24-9.244zm0 3.244c3.32 0 6 2.686 6 6s-2.68 6-6 6c-3.31 0-6-2.686-6-6s2.69-6 6-6zM1504.35 33.688h5.52l-12.06 13.82L1512 66.311h-11.11l-8.7-11.405-9.96 11.406h-5.52l12.9-14.782L1476 33.688h11.39l7.87 10.424 9.09-10.425zM1502.41 63h3.06l-19.74-26.174h-3.28L1502.41 63zM1522 41c0-2.485 2.01-4.5 4.5-4.5h27c2.49 0 4.5 2.015 4.5 4.5v18c0 2.485-2.01 4.5-4.5 4.5h-27c-2.49 0-4.5-2.015-4.5-4.5V41zm4.5-2.25a2.252 2.252 0 0 0-2.25 2.25v.488l15.75 9.45 15.75-9.45V41c0-1.243-1.01-2.25-2.25-2.25h-27zm29.25 5.362-10.59 6.356 10.59 6.519V44.112zm-.08 15.47-12.69-7.81-2.98 1.79-2.98-1.79-12.69 7.81c.25.96 1.13 1.668 2.17 1.668h27c1.04 0 1.92-.708 2.17-1.668zm-31.42-2.595 10.59-6.52-10.59-6.355v12.875z" fill="#1D4978"/>
    <defs>
        <filter id="tyhbkya81a" x="453.924" y="36.644" width="363.049" height="31.478" filterUnits="userSpaceOnUse" color-interpolation-filters="sRGB">
            <feFlood flood-opacity="0" result="BackgroundImageFix"/>
            <feColorMatrix in="SourceAlpha" values="0 0 0 0 0 0 0 0 0 0 0 0 0 0 0 0 0 0 127 0" result="hardAlpha"/>
            <feOffset dy="4"/>
            <feGaussianBlur stdDeviation="2"/>
            <feComposite in2="hardAlpha" operator="out"/>
            <feColorMatrix values="0 0 0 0 0 0 0 0 0 0 0 0 0 0 0 0 0 0 0.25 0"/>
            <feBlend in2="BackgroundImageFix" result="effect1_dropShadow_11_16"/>
            <feBlend in="SourceGraphic" in2="effect1_dropShadow_11_16" result="shape"/>
        </filter>
    </defs>
</svg>
