<svg width="36" height="36" viewBox="0 0 36 36" fill="none" xmlns="http://www.w3.org/2000/svg">
    <path d="M18.002 0C13.113 0 12.5.021 10.58.109c-1.917.088-3.225.39-4.37.836a8.814 8.814 0 0 0-3.188 2.076A8.836 8.836 0 0 0 .945 6.209C.498 7.354.195 8.662.108 10.578.023 12.498 0 13.112 0 18c0 4.889.022 5.5.109 7.42.088 1.917.391 3.225.836 4.37a8.82 8.82 0 0 0 2.076 3.188 8.814 8.814 0 0 0 3.188 2.077c1.145.446 2.453.749 4.37.837 1.92.087 2.532.108 7.42.108 4.89 0 5.501-.021 7.421-.108 1.916-.088 3.226-.392 4.371-.837a8.808 8.808 0 0 0 3.186-2.077 8.837 8.837 0 0 0 2.078-3.188c.443-1.145.746-2.454.836-4.37C35.978 23.5 36 22.89 36 18c0-4.888-.023-5.502-.109-7.422-.09-1.916-.393-3.224-.836-4.369a8.836 8.836 0 0 0-2.078-3.188A8.798 8.798 0 0 0 29.79.945C28.642.5 27.334.197 25.417.109 23.497.02 22.887 0 17.997 0h.005zm-1.615 3.244h1.615c4.806 0 5.375.017 7.273.103 1.755.08 2.708.374 3.342.62.84.326 1.44.716 2.069 1.346.63.63 1.02 1.23 1.347 2.07.246.634.54 1.587.62 3.342.086 1.897.105 2.467.105 7.271s-.019 5.374-.105 7.271c-.08 1.755-.374 2.708-.62 3.342a5.564 5.564 0 0 1-1.347 2.067 5.565 5.565 0 0 1-2.069 1.347c-.634.247-1.587.54-3.342.62-1.897.086-2.467.105-7.273.105-4.807 0-5.376-.019-7.274-.105-1.755-.081-2.707-.374-3.342-.62a5.575 5.575 0 0 1-2.07-1.347 5.579 5.579 0 0 1-1.347-2.069c-.247-.634-.54-1.586-.62-3.341-.086-1.898-.104-2.468-.104-7.274 0-4.807.018-5.374.104-7.272.08-1.755.373-2.707.62-3.342.326-.84.717-1.44 1.347-2.07.63-.63 1.23-1.02 2.07-1.347.634-.247 1.587-.54 3.342-.62 1.66-.075 2.304-.098 5.659-.102v.005zM27.61 6.233a2.16 2.16 0 1 0 0 4.32 2.16 2.16 0 0 0 0-4.321zm-9.608 2.523A9.244 9.244 0 0 0 8.758 18c0 5.105 4.139 9.242 9.244 9.242A9.241 9.241 0 0 0 27.244 18c0-5.105-4.138-9.244-9.243-9.244zm0 3.244a6 6 0 1 1 0 12 6 6 0 0 1 0-12z" fill="#1D4978"/>
</svg>
